<svg width="19" height="19" viewBox="0 0 19 19" fill="none" xmlns="http://www.w3.org/2000/svg">
<path d="M7.40146 1.72131C6.85493 1.72514 6.33215 1.94516 5.94737 2.33329C5.56247 1.94514 5.03958 1.72512 4.49297 1.72131C3.28824 1.72131 2.31152 2.7896 2.31152 4.11001C2.31152 5.43041 4.85649 7.69274 5.94737 8.48907C7.03794 7.69274 9.5829 5.42919 9.5829 4.11001C9.5829 2.79082 8.60618 1.72131 7.40146 1.72131Z" stroke="#FBBA12" stroke-width="0.8" stroke-linecap="round" stroke-linejoin="round"/>
<path d="M15.6427 9.96094C15.0961 9.96476 14.5734 10.1848 14.1886 10.5729C13.8037 10.1848 13.2808 9.96475 12.7342 9.96094C11.5295 9.96094 10.5527 11.0292 10.5527 12.3496C10.5527 13.67 13.0977 15.9324 14.1886 16.7287C15.2791 15.9324 17.8241 13.6688 17.8241 12.3496C17.8241 11.0304 16.8474 9.96094 15.6427 9.96094Z" stroke="#FBBA12" stroke-width="0.8" stroke-linecap="round" stroke-linejoin="round"/>
<path d="M8.32544 9.75977V10.3702" stroke="#FBBA12" stroke-width="0.8" stroke-linecap="round" stroke-linejoin="round"/>
<path d="M8.32544 11.5902V12.2007" stroke="#FBBA12" stroke-width="0.8" stroke-linecap="round" stroke-linejoin="round"/>
<path d="M7.10449 10.9801H7.71494" stroke="#FBBA12" stroke-width="0.8" stroke-linecap="round" stroke-linejoin="round"/>
<path d="M8.93579 10.9801H9.54624" stroke="#FBBA12" stroke-width="0.8" stroke-linecap="round" stroke-linejoin="round"/>
<path d="M11.8356 2.12854C12.257 2.12854 12.5986 1.78691 12.5986 1.36548C12.5986 0.944052 12.257 0.602417 11.8356 0.602417C11.4141 0.602417 11.0725 0.944052 11.0725 1.36548C11.0725 1.78691 11.4141 2.12854 11.8356 2.12854Z" stroke="#FBBA12" stroke-width="0.8" stroke-linecap="round" stroke-linejoin="round"/>
<path d="M1.76306 18.001C2.18449 18.001 2.52613 17.6593 2.52613 17.2379C2.52613 16.8165 2.18449 16.4749 1.76306 16.4749C1.34163 16.4749 1 16.8165 1 17.2379C1 17.6593 1.34163 18.001 1.76306 18.001Z" stroke="#FBBA12" stroke-width="0.8" stroke-linecap="round" stroke-linejoin="round"/>
</svg>
